<svg width="13" height="12" viewBox="0 0 13 12" fill="none" xmlns="http://www.w3.org/2000/svg">
<path fill-rule="evenodd" clip-rule="evenodd" d="M3.71423 1.67897C3.71423 0.82424 4.40713 0.131348 5.26185 0.131348H7.73804C8.59277 0.131348 9.28566 0.82424 9.28566 1.67897V2.29801C9.28566 2.46896 9.14708 2.60754 8.97614 2.60754H4.02376C3.85281 2.60754 3.71423 2.46896 3.71423 2.29801V1.67897ZM5.26185 0.750395C4.74902 0.750395 4.33328 1.16613 4.33328 1.67897V1.98849H8.66661V1.67897C8.66661 1.16613 8.25088 0.750395 7.73804 0.750395H5.26185Z" fill="black"/>
<path fill-rule="evenodd" clip-rule="evenodd" d="M0 3.5359C0 2.68117 0.692893 1.98828 1.54762 1.98828H11.4524C12.3071 1.98828 13 2.68117 13 3.5359V10.3454C13 11.2002 12.3071 11.893 11.4524 11.893H1.54762C0.692893 11.893 0 11.2002 0 10.3454V3.5359ZM1.54762 2.60733C1.03478 2.60733 0.619048 3.02306 0.619048 3.5359V10.3454C0.619048 10.8583 1.03478 11.274 1.54762 11.274H11.4524C11.9652 11.274 12.381 10.8583 12.381 10.3454V3.5359C12.381 3.02306 11.9652 2.60733 11.4524 2.60733H1.54762Z" fill="black"/>
<path fill-rule="evenodd" clip-rule="evenodd" d="M0 3.5359C0 2.68117 0.692893 1.98828 1.54762 1.98828H11.4524C12.3071 1.98828 13 2.68117 13 3.5359V5.39304C13 5.52973 12.9103 5.65024 12.7794 5.68951L6.58894 7.54666C6.53092 7.56406 6.46908 7.56406 6.41106 7.54666L0.220583 5.68951C0.0896592 5.65024 0 5.52973 0 5.39304V3.5359ZM1.54762 2.60733C1.03478 2.60733 0.619048 3.02306 0.619048 3.5359V5.16275L6.5 6.92703L12.381 5.16275V3.5359C12.381 3.02306 11.9652 2.60733 11.4524 2.60733H1.54762Z" fill="black"/>
<path fill-rule="evenodd" clip-rule="evenodd" d="M6.19043 8.4884V6.01221H6.80948V8.4884H6.19043Z" fill="black"/>
</svg>
