<svg width="18" height="19" viewBox="0 0 18 19" fill="none" xmlns="http://www.w3.org/2000/svg">
<path d="M15.1875 5.75635L14.7188 13.7303C14.6935 14.1601 14.5049 14.564 14.1916 14.8593C13.8783 15.1546 13.464 15.319 13.0335 15.3188H4.9665C4.53597 15.319 4.12166 15.1546 3.80837 14.8593C3.49508 14.564 3.30651 14.1601 3.28125 13.7303L2.8125 5.75635M9 8.00635V13.0688M9 13.0688L6.75 10.8188M9 13.0688L11.25 10.8188M2.53125 5.75635H15.4688C15.9345 5.75635 16.3125 5.37835 16.3125 4.9126V3.7876C16.3125 3.32185 15.9345 2.94385 15.4688 2.94385H2.53125C2.0655 2.94385 1.6875 3.32185 1.6875 3.7876V4.9126C1.6875 5.37835 2.0655 5.75635 2.53125 5.75635Z" stroke="black" stroke-width="0.5" stroke-linecap="round" stroke-linejoin="round"/>
</svg>
