<svg width="70" height="70" viewBox="0 0 70 70" fill="none" xmlns="http://www.w3.org/2000/svg">
<path fill-rule="evenodd" clip-rule="evenodd" d="M35 7.29167C19.6971 7.29167 7.29167 19.6971 7.29167 35C7.29167 50.3029 19.6971 62.7083 35 62.7083C50.3029 62.7083 62.7083 50.3029 62.7083 35C62.7083 19.6971 50.3029 7.29167 35 7.29167ZM4.375 35C4.375 18.0863 18.0863 4.375 35 4.375C51.9137 4.375 65.625 18.0863 65.625 35C65.625 51.9137 51.9137 65.625 35 65.625C18.0863 65.625 4.375 51.9137 4.375 35Z" fill="black"/>
<path fill-rule="evenodd" clip-rule="evenodd" d="M27.0603 27.8704C27.0603 23.8433 30.3249 20.5787 34.352 20.5787H35.6483C39.6753 20.5787 42.9399 23.8433 42.9399 27.8704V28.5186H40.0233V27.8704C40.0233 25.4542 38.0645 23.4954 35.6483 23.4954H34.352C31.9357 23.4954 29.977 25.4542 29.977 27.8704V28.1541C29.977 29.8112 30.9132 31.3261 32.3954 32.0672L38.9092 35.3241C41.3795 36.5593 42.9399 39.0841 42.9399 41.846V42.1297C42.9399 46.1567 39.6753 49.4213 35.6483 49.4213H34.352C30.3249 49.4213 27.0603 46.1567 27.0603 42.1297V41.4815H29.977V42.1297C29.977 44.5459 31.9357 46.5047 34.352 46.5047H35.6483C38.0645 46.5047 40.0233 44.5459 40.0233 42.1297V41.846C40.0233 40.1888 39.087 38.6739 37.6048 37.9329L31.091 34.676C28.6207 33.4408 27.0603 30.916 27.0603 28.1541V27.8704Z" fill="black"/>
<path fill-rule="evenodd" clip-rule="evenodd" d="M36.4584 15.5555V22.037H33.5417V15.5555H36.4584Z" fill="black"/>
<path fill-rule="evenodd" clip-rule="evenodd" d="M36.4584 47.963V54.4445H33.5417V47.963H36.4584Z" fill="black"/>
</svg>
