<svg width="70" height="70" viewBox="0 0 70 70" fill="none" xmlns="http://www.w3.org/2000/svg">
<path fill-rule="evenodd" clip-rule="evenodd" d="M4.375 5.83333C4.375 5.02792 5.02792 4.375 5.83333 4.375H20.4167C21.2221 4.375 21.875 5.02792 21.875 5.83333V20.4167C21.875 21.2221 21.2221 21.875 20.4167 21.875H5.83333C5.02792 21.875 4.375 21.2221 4.375 20.4167V5.83333ZM7.29167 7.29167V18.9583H18.9583V7.29167H7.29167Z" fill="black"/>
<path fill-rule="evenodd" clip-rule="evenodd" d="M4.375 27.7083C4.375 26.9029 5.02792 26.25 5.83333 26.25H20.4167C21.2221 26.25 21.875 26.9029 21.875 27.7083V42.2917C21.875 43.0971 21.2221 43.75 20.4167 43.75H5.83333C5.02792 43.75 4.375 43.0971 4.375 42.2917V27.7083ZM7.29167 29.1667V40.8333H18.9583V29.1667H7.29167Z" fill="black"/>
<path fill-rule="evenodd" clip-rule="evenodd" d="M4.375 49.5833C4.375 48.7779 5.02792 48.125 5.83333 48.125H20.4167C21.2221 48.125 21.875 48.7779 21.875 49.5833V64.1667C21.875 64.9721 21.2221 65.625 20.4167 65.625H5.83333C5.02792 65.625 4.375 64.9721 4.375 64.1667V49.5833ZM7.29167 51.0417V62.7083H18.9583V51.0417H7.29167Z" fill="black"/>
<path fill-rule="evenodd" clip-rule="evenodd" d="M26.25 5.83333C26.25 5.02792 26.9029 4.375 27.7083 4.375H42.2917C43.0971 4.375 43.75 5.02792 43.75 5.83333V20.4167C43.75 21.2221 43.0971 21.875 42.2917 21.875H27.7083C26.9029 21.875 26.25 21.2221 26.25 20.4167V5.83333ZM29.1667 7.29167V18.9583H40.8333V7.29167H29.1667Z" fill="black"/>
<path fill-rule="evenodd" clip-rule="evenodd" d="M26.25 27.7083C26.25 26.9029 26.9029 26.25 27.7083 26.25H42.2917C43.0971 26.25 43.75 26.9029 43.75 27.7083V42.2917C43.75 43.0971 43.0971 43.75 42.2917 43.75H27.7083C26.9029 43.75 26.25 43.0971 26.25 42.2917V27.7083ZM29.1667 29.1667V40.8333H40.8333V29.1667H29.1667Z" fill="black"/>
<path fill-rule="evenodd" clip-rule="evenodd" d="M26.25 49.5833C26.25 48.7779 26.9029 48.125 27.7083 48.125H42.2917C43.0971 48.125 43.75 48.7779 43.75 49.5833V64.1667C43.75 64.9721 43.0971 65.625 42.2917 65.625H27.7083C26.9029 65.625 26.25 64.9721 26.25 64.1667V49.5833ZM29.1667 51.0417V62.7083H40.8333V51.0417H29.1667Z" fill="black"/>
<path fill-rule="evenodd" clip-rule="evenodd" d="M48.125 5.83333C48.125 5.02792 48.7779 4.375 49.5833 4.375H64.1667C64.9721 4.375 65.625 5.02792 65.625 5.83333V20.4167C65.625 21.2221 64.9721 21.875 64.1667 21.875H49.5833C48.7779 21.875 48.125 21.2221 48.125 20.4167V5.83333ZM51.0417 7.29167V18.9583H62.7083V7.29167H51.0417Z" fill="black"/>
<path fill-rule="evenodd" clip-rule="evenodd" d="M48.125 27.7083C48.125 26.9029 48.7779 26.25 49.5833 26.25H64.1667C64.9721 26.25 65.625 26.9029 65.625 27.7083V42.2917C65.625 43.0971 64.9721 43.75 64.1667 43.75H49.5833C48.7779 43.75 48.125 43.0971 48.125 42.2917V27.7083ZM51.0417 29.1667V40.8333H62.7083V29.1667H51.0417Z" fill="black"/>
<path fill-rule="evenodd" clip-rule="evenodd" d="M48.125 49.5833C48.125 48.7779 48.7779 48.125 49.5833 48.125H64.1667C64.9721 48.125 65.625 48.7779 65.625 49.5833V64.1667C65.625 64.9721 64.9721 65.625 64.1667 65.625H49.5833C48.7779 65.625 48.125 64.9721 48.125 64.1667V49.5833ZM51.0417 51.0417V62.7083H62.7083V51.0417H51.0417Z" fill="black"/>
</svg>
