<svg width="109" height="109" viewBox="0 0 109 109" fill="none" xmlns="http://www.w3.org/2000/svg">
<path fill-rule="evenodd" clip-rule="evenodd" d="M35.4767 21.3172C34.304 20.1445 32.4028 20.1445 31.2301 21.3172L24.912 27.6353C20.4096 32.1377 19.1723 38.9607 21.8072 44.7573C30.3572 63.5674 45.4327 78.6429 64.2429 87.193C70.0395 89.8278 76.8625 88.5906 81.3648 84.0882L87.683 77.77C88.8557 76.5974 88.8557 74.6961 87.683 73.5234L79.1837 65.0241C78.2697 64.1102 76.8735 63.8836 75.7175 64.4616L71.0006 66.8201C66.0658 69.2875 60.1057 68.3203 56.2044 64.419L44.5812 52.7958C40.6798 48.8944 39.7127 42.9344 42.1801 37.9996L44.5385 33.2827C45.1165 32.1266 44.89 30.7304 43.976 29.8165L35.4767 21.3172ZM28.0187 18.1057C30.965 15.1594 35.7418 15.1594 38.6881 18.1057L47.1875 26.6051C49.4837 28.9013 50.053 32.4092 48.6007 35.3138L46.2423 40.0307C44.6491 43.217 45.2736 47.0653 47.7926 49.5843L59.4158 61.2075C61.9348 63.7265 65.7831 64.351 68.9695 62.7579L73.6864 60.3994C76.5909 58.9472 80.0989 59.5164 82.3951 61.8127L90.8944 70.312C93.8407 73.2583 93.8407 78.0352 90.8944 80.9815L84.5763 87.2996C78.7352 93.1407 69.8836 94.7458 62.3635 91.3276C42.5537 82.3231 26.677 66.4465 17.6726 46.6366C14.2543 39.1166 15.8595 30.2649 21.7005 24.4239L28.0187 18.1057Z" fill="black"/>
</svg>
