<svg width="70" height="70" viewBox="0 0 70 70" fill="none" xmlns="http://www.w3.org/2000/svg">
<path fill-rule="evenodd" clip-rule="evenodd" d="M10.2083 11.6667C10.2083 7.63959 13.4728 4.375 17.4999 4.375H52.4999C56.527 4.375 59.7916 7.63959 59.7916 11.6667V64.1667C59.7916 64.6588 59.5434 65.1178 59.1315 65.3872C58.7196 65.6565 58.1996 65.7 57.7487 65.5027L46.6666 60.6543L35.5844 65.5027C35.2118 65.6658 34.788 65.6658 34.4154 65.5027L23.3333 60.6543L12.2511 65.5027C11.8002 65.7 11.2803 65.6565 10.8684 65.3872C10.4565 65.1178 10.2083 64.6588 10.2083 64.1667V11.6667ZM17.4999 7.29167C15.0837 7.29167 13.1249 9.25042 13.1249 11.6667V61.9369L22.7487 57.7264C23.1214 57.5634 23.5451 57.5634 23.9178 57.7264L34.9999 62.5749L46.0821 57.7264C46.4547 57.5634 46.8785 57.5634 47.2511 57.7264L56.8749 61.9369V11.6667C56.8749 9.25042 54.9162 7.29167 52.4999 7.29167H17.4999Z" fill="black"/>
<path fill-rule="evenodd" clip-rule="evenodd" d="M37.9166 33.5417H18.9583V30.625H37.9166V33.5417Z" fill="black"/>
<path fill-rule="evenodd" clip-rule="evenodd" d="M37.9166 45.2082H18.9583V42.2915H37.9166V45.2082Z" fill="black"/>
<path fill-rule="evenodd" clip-rule="evenodd" d="M51.0416 33.5417H45.2083V30.625H51.0416V33.5417Z" fill="black"/>
<path fill-rule="evenodd" clip-rule="evenodd" d="M51.0416 45.2082H45.2083V42.2915H51.0416V45.2082Z" fill="black"/>
<path fill-rule="evenodd" clip-rule="evenodd" d="M37.9166 21.8752H18.9583V18.9585H37.9166V21.8752Z" fill="black"/>
<path fill-rule="evenodd" clip-rule="evenodd" d="M51.0416 21.8752H45.2083V18.9585H51.0416V21.8752Z" fill="black"/>
</svg>
