<svg width="16" height="13" viewBox="0 0 16 13" fill="none" xmlns="http://www.w3.org/2000/svg">
<path d="M5.18751 11.0624C5.18751 11.3607 5.06899 11.6469 4.85801 11.8579C4.64703 12.0688 4.36088 12.1874 4.06251 12.1874C3.76415 12.1874 3.478 12.0688 3.26702 11.8579C3.05604 11.6469 2.93751 11.3607 2.93751 11.0624M5.18751 11.0624C5.18751 10.764 5.06899 10.4779 4.85801 10.2669C4.64703 10.0559 4.36088 9.93737 4.06251 9.93737C3.76415 9.93737 3.478 10.0559 3.26702 10.2669C3.05604 10.4779 2.93751 10.764 2.93751 11.0624M5.18751 11.0624H9.68752M2.93751 11.0624H1.53126C1.30749 11.0624 1.09288 10.9735 0.934643 10.8152C0.776409 10.657 0.687514 10.4424 0.687514 10.2186V7.68737M9.68752 11.0624H11.375M9.68752 11.0624V7.68737M0.687514 7.68737V1.96112C0.686322 1.75575 0.76136 1.55724 0.898106 1.404C1.03485 1.25077 1.22358 1.15372 1.42776 1.13162C3.92755 0.872142 6.44748 0.872142 8.94726 1.13162C9.37101 1.17512 9.68752 1.53512 9.68752 1.96112V2.67962M0.687514 7.68737H9.68752M13.625 11.0624C13.625 11.3607 13.5065 11.6469 13.2955 11.8579C13.0845 12.0688 12.7984 12.1874 12.5 12.1874C12.2016 12.1874 11.9155 12.0688 11.7045 11.8579C11.4935 11.6469 11.375 11.3607 11.375 11.0624M13.625 11.0624C13.625 10.764 13.5065 10.4779 13.2955 10.2669C13.0845 10.0559 12.7984 9.93737 12.5 9.93737C12.2016 9.93737 11.9155 10.0559 11.7045 10.2669C11.4935 10.4779 11.375 10.764 11.375 11.0624M13.625 11.0624H14.4688C14.9345 11.0624 15.3155 10.6844 15.2863 10.2194C15.1356 7.7426 14.3014 5.35604 12.8765 3.32462C12.7408 3.13433 12.5636 2.97738 12.3583 2.86564C12.153 2.7539 11.925 2.69029 11.6915 2.67962H9.68752M9.68752 2.67962V7.68737" stroke="black" stroke-width="0.5" stroke-linecap="round" stroke-linejoin="round"/>
</svg>
