<svg width="74" height="71" viewBox="0 0 74 71" fill="none" xmlns="http://www.w3.org/2000/svg">
<path d="M40.8374 12.2901C40.8374 14.3354 39.0522 16.0993 36.7155 16.0993C34.3787 16.0993 32.5935 14.3354 32.5935 12.2901C32.5935 10.2448 34.3787 8.48096 36.7155 8.48096C39.0522 8.48096 40.8374 10.2448 40.8374 12.2901Z" stroke="black" stroke-width="2"/>
<mask id="mask0_50_576" style="mask-type:alpha" maskUnits="userSpaceOnUse" x="23" y="0" width="27" height="25">
<path d="M48.8048 12.2901C48.8048 18.467 43.4525 23.5802 36.7154 23.5802C29.9783 23.5802 24.626 18.467 24.626 12.2901C24.626 6.11316 29.9783 1 36.7154 1C43.4525 1 48.8048 6.11316 48.8048 12.2901Z" stroke="black" stroke-width="2"/>
</mask>
<g mask="url(#mask0_50_576)">
<rect x="21.5999" y="-1.40002" width="30.7317" height="13.8931" fill="black"/>
</g>
<path d="M47.15 12.8245H60.6179L72 70H2L13.3821 12.8245H26.15" stroke="black" stroke-width="2"/>
</svg>
